<svg xmlns="http://www.w3.org/2000/svg" width="40" height="40" viewBox="0 0 512 512"><path d="M185.379 384v17.655H326.62V384h150.07V101.517c0-9.754-7.901-17.655-17.655-17.655H52.966c-9.754 0-17.655 7.901-17.655 17.655V384h150.068z" fill="#38454f"/><path d="M326.621 384v17.655H185.379V384H0v26.483c0 9.754 7.901 17.655 17.655 17.655h476.69c9.754 0 17.655-7.901 17.655-17.655V384H326.621z" fill="#b0b6bb"/><path fill="#546a79" d="M52.966 366.345h406.068V101.517H52.966z"/><g fill="#ea6148"><path d="M432.552 348.69H300.138c-4.882 0-8.828-3.955-8.828-8.828s3.946-8.828 8.828-8.828h132.414c4.882 0 8.828 3.955 8.828 8.828s-3.947 8.828-8.828 8.828M167.724 295.724H79.448c-4.882 0-8.828-3.955-8.828-8.828s3.946-8.828 8.828-8.828h88.276c4.882 0 8.828 3.955 8.828 8.828s-3.946 8.828-8.828 8.828M388.414 295.724H256c-4.882 0-8.828-3.955-8.828-8.828s3.946-8.828 8.828-8.828h132.414c4.882 0 8.828 3.955 8.828 8.828s-3.947 8.828-8.828 8.828M211.862 295.724c-2.295 0-4.599-.971-6.268-2.56-1.598-1.677-2.56-3.972-2.56-6.268 0-1.148.265-2.295.706-3.354.441-1.148 1.059-2.119 1.854-2.913 3.266-3.266 9.181-3.266 12.535 0 1.589 1.677 2.56 3.972 2.56 6.268s-.971 4.59-2.56 6.268c-.441.353-.892.794-1.412 1.059-.441.353-.98.618-1.501.794-.538.265-1.059.441-1.686.53-.52.088-1.138.176-1.668.176M256 348.69H123.586c-4.882 0-8.828-3.955-8.828-8.828s3.946-8.828 8.828-8.828H256c4.882 0 8.828 3.955 8.828 8.828s-3.946 8.828-8.828 8.828M79.448 348.69c-1.148 0-2.295-.265-3.354-.706-1.059-.441-2.03-1.059-2.913-1.854-1.598-1.677-2.56-3.884-2.56-6.268 0-1.148.265-2.295.706-3.354.441-1.148 1.059-2.03 1.854-2.913 2.119-2.03 5.12-2.913 7.936-2.383.627.088 1.148.265 1.686.53.521.177 1.059.441 1.501.794.521.353.971.706 1.412 1.059.794.883 1.412 1.766 1.854 2.913.441 1.059.706 2.207.706 3.354 0 2.383-.971 4.59-2.56 6.268-.441.353-.892.706-1.412 1.059-.441.353-.98.618-1.501.794-.538.265-1.059.441-1.686.53-.521.088-1.139.177-1.669.177M432.552 295.724c-.538 0-1.148-.088-1.677-.177-.618-.088-1.148-.265-1.677-.53-.53-.177-1.059-.441-1.598-.794-.433-.353-.874-.706-1.315-1.059-1.598-1.677-2.56-3.972-2.56-6.268s.962-4.59 2.56-6.268l1.315-1.059c.539-.353 1.068-.618 1.598-.794.53-.265 1.059-.441 1.677-.53 2.825-.618 5.906.353 7.945 2.383.353.441.706.883 1.059 1.412.353.441.609.971.794 1.501.265.53.441 1.059.521 1.677.097.53.185 1.148.185 1.677 0 .53-.088 1.148-.185 1.766-.079.53-.256 1.059-.521 1.589-.185.53-.441 1.059-.794 1.589-.353.441-.706.883-1.059 1.324-.441.353-.892.706-1.324 1.059-.53.353-1.068.618-1.589.794-.538.265-1.059.441-1.686.53-.522.09-1.14.178-1.669.178M432.552 189.793H300.138c-4.882 0-8.828-3.955-8.828-8.828s3.946-8.828 8.828-8.828h132.414c4.882 0 8.828 3.955 8.828 8.828s-3.947 8.828-8.828 8.828M432.552 242.759h-88.276c-4.882 0-8.828-3.955-8.828-8.828 0-4.873 3.946-8.828 8.828-8.828h88.276c4.882 0 8.828 3.955 8.828 8.828-.001 4.873-3.947 8.828-8.828 8.828M273.655 242.759H256c-4.882 0-8.828-3.955-8.828-8.828 0-4.873 3.946-8.828 8.828-8.828h17.655c4.882 0 8.828 3.955 8.828 8.828 0 4.873-3.946 8.828-8.828 8.828M388.414 136.828H256c-4.882 0-8.828-3.955-8.828-8.828 0-4.873 3.946-8.828 8.828-8.828h132.414c4.882 0 8.828 3.955 8.828 8.828-.001 4.873-3.947 8.828-8.828 8.828M432.552 136.828c-.538 0-1.148-.088-1.677-.177-.618-.088-1.148-.265-1.677-.53-.53-.177-1.059-.441-1.598-.794-.433-.353-.874-.706-1.315-1.059-1.598-1.677-2.56-3.972-2.56-6.268 0-2.295.962-4.59 2.56-6.268l1.315-1.059c.539-.353 1.068-.618 1.598-.794.53-.265 1.059-.441 1.677-.53 2.825-.618 5.906.353 7.945 2.383.353.441.706.883 1.059 1.412.353.441.609.971.794 1.501.265.53.441 1.059.521 1.677.097.53.185 1.148.185 1.677 0 .53-.088 1.148-.185 1.766-.079.53-.256 1.059-.521 1.589-.185.53-.441 1.059-.794 1.589-.353.441-.706.883-1.059 1.324-.441.353-.892.706-1.324 1.059-.53.353-1.068.618-1.589.794-.538.265-1.059.441-1.686.53-.522.089-1.14.178-1.669.178M264.828 189.793c-2.392 0-4.599-.971-6.268-2.56-1.598-1.677-2.56-3.884-2.56-6.268 0-2.295.962-4.59 2.56-6.268 2.03-2.03 5.12-3.001 7.936-2.383.627.088 1.148.265 1.686.53.521.177 1.059.441 1.501.794.521.265.971.706 1.324 1.059 1.677 1.677 2.648 3.972 2.648 6.268 0 2.383-.971 4.59-2.648 6.268-1.589 1.589-3.796 2.56-6.179 2.56M308.966 242.759c-.618 0-1.148-.088-1.766-.177-.53-.088-1.059-.265-1.589-.53-.53-.177-1.059-.441-1.598-.794-.433-.353-.874-.706-1.315-1.059-1.598-1.677-2.56-3.884-2.56-6.268 0-2.295.962-4.59 2.56-6.268 3.266-3.266 9.269-3.266 12.535 0 1.589 1.677 2.56 3.972 2.56 6.268 0 .618-.088 1.148-.185 1.766-.079.53-.256 1.059-.521 1.589-.185.53-.441 1.059-.794 1.589-.353.441-.706.883-1.059 1.324-1.678 1.589-3.973 2.56-6.268 2.56"/></g><path fill="#ecba16" d="M79.448 242.759h123.586V119.172H79.448z"/></svg>